<mxfile host="app.diagrams.net" modified="2022-10-23T16:12:56.454Z" agent="5.0 (Windows NT 10.0; Win64; x64) AppleWebKit/537.36 (KHTML, like Gecko) Chrome/106.0.0.0 Safari/537.36" etag="LAWTUoqPSehW3DpGfXPB" version="20.4.2" type="github">
  <diagram id="OInQUNuNO3AYRQuPPQoJ" name="第 1 页">
    <mxGraphModel dx="2171" dy="2065" grid="1" gridSize="10" guides="1" tooltips="1" connect="1" arrows="1" fold="1" page="1" pageScale="1" pageWidth="1100" pageHeight="850" math="0" shadow="0">
      <root>
        <mxCell id="0" />
        <mxCell id="1" parent="0" />
        <mxCell id="O0PW9jx7jIYoNXfm1WO1-255" value="&lt;span style=&quot;font-weight: 400;&quot;&gt;bank&lt;br&gt;&lt;/span&gt;" style="rounded=0;whiteSpace=wrap;html=1;dashed=1;strokeWidth=2;fillColor=none;verticalAlign=top;fontStyle=1" parent="1" vertex="1">
          <mxGeometry x="990" y="1080" width="930" height="1980" as="geometry" />
        </mxCell>
        <mxCell id="O0PW9jx7jIYoNXfm1WO1-474" value="&lt;span style=&quot;font-weight: 400;&quot;&gt;ekyc&lt;/span&gt;" style="rounded=0;whiteSpace=wrap;html=1;dashed=1;strokeWidth=2;fillColor=none;verticalAlign=top;fontStyle=1;opacity=40;" parent="1" vertex="1">
          <mxGeometry x="1010" y="2820" width="430" height="140" as="geometry" />
        </mxCell>
        <mxCell id="O0PW9jx7jIYoNXfm1WO1-475" value="&lt;span style=&quot;font-weight: 400;&quot;&gt;web &amp;amp; app&lt;/span&gt;" style="rounded=0;whiteSpace=wrap;html=1;dashed=1;strokeWidth=2;fillColor=none;verticalAlign=top;fontStyle=1;opacity=20;" parent="1" vertex="1">
          <mxGeometry x="1030" y="2850" width="390" height="100" as="geometry" />
        </mxCell>
        <mxCell id="O0PW9jx7jIYoNXfm1WO1-476" value="biapfacecomparison" style="rounded=0;whiteSpace=wrap;html=1;fontColor=#000000;fillColor=none;" parent="1" vertex="1">
          <mxGeometry x="1040" y="2880" width="110" height="60" as="geometry" />
        </mxCell>
        <mxCell id="O0PW9jx7jIYoNXfm1WO1-477" value="biapfacerecognition" style="rounded=0;whiteSpace=wrap;html=1;fontColor=#000000;fillColor=none;" parent="1" vertex="1">
          <mxGeometry x="1170" y="2880" width="110" height="60" as="geometry" />
        </mxCell>
        <mxCell id="O0PW9jx7jIYoNXfm1WO1-478" value="detect multi side" style="rounded=0;whiteSpace=wrap;html=1;fontColor=#000000;fillColor=none;" parent="1" vertex="1">
          <mxGeometry x="1300" y="2880" width="110" height="60" as="geometry" />
        </mxCell>
        <mxCell id="O0PW9jx7jIYoNXfm1WO1-481" value="&lt;span style=&quot;font-weight: 400;&quot;&gt;transfer&lt;/span&gt;" style="rounded=0;whiteSpace=wrap;html=1;dashed=1;strokeWidth=2;fillColor=none;verticalAlign=top;fontStyle=1;opacity=40;" parent="1" vertex="1">
          <mxGeometry x="1470" y="2620" width="430" height="210" as="geometry" />
        </mxCell>
        <mxCell id="O0PW9jx7jIYoNXfm1WO1-482" value="&lt;span style=&quot;font-weight: 400;&quot;&gt;web &amp;amp; app&lt;/span&gt;" style="rounded=0;whiteSpace=wrap;html=1;dashed=1;strokeWidth=2;fillColor=none;verticalAlign=top;fontStyle=1;opacity=20;" parent="1" vertex="1">
          <mxGeometry x="1490" y="2650" width="390" height="170" as="geometry" />
        </mxCell>
        <mxCell id="O0PW9jx7jIYoNXfm1WO1-483" value="amount verification (buy now pay later)" style="rounded=0;whiteSpace=wrap;html=1;fontColor=#000000;fillColor=none;" parent="1" vertex="1">
          <mxGeometry x="1500" y="2680" width="110" height="60" as="geometry" />
        </mxCell>
        <mxCell id="O0PW9jx7jIYoNXfm1WO1-484" value="disbursements (buy now pay later)" style="rounded=0;whiteSpace=wrap;html=1;fontColor=#000000;fillColor=none;" parent="1" vertex="1">
          <mxGeometry x="1630" y="2680" width="110" height="60" as="geometry" />
        </mxCell>
        <mxCell id="O0PW9jx7jIYoNXfm1WO1-485" value="interest calculation (buy now pay later)" style="rounded=0;whiteSpace=wrap;html=1;fontColor=#000000;fillColor=none;" parent="1" vertex="1">
          <mxGeometry x="1760" y="2680" width="110" height="60" as="geometry" />
        </mxCell>
        <mxCell id="O0PW9jx7jIYoNXfm1WO1-486" value="transfer by qr-code" style="rounded=0;whiteSpace=wrap;html=1;fontColor=#000000;fillColor=none;" parent="1" vertex="1">
          <mxGeometry x="1500" y="2750" width="110" height="60" as="geometry" />
        </mxCell>
        <mxCell id="O0PW9jx7jIYoNXfm1WO1-487" value="get server transaction date" style="rounded=0;whiteSpace=wrap;html=1;fontColor=#000000;fillColor=none;" parent="1" vertex="1">
          <mxGeometry x="1630" y="2750" width="110" height="60" as="geometry" />
        </mxCell>
        <mxCell id="O0PW9jx7jIYoNXfm1WO1-488" value="transfer with internal bank" style="rounded=0;whiteSpace=wrap;html=1;fontColor=#000000;fillColor=none;" parent="1" vertex="1">
          <mxGeometry x="1760" y="2750" width="110" height="60" as="geometry" />
        </mxCell>
        <mxCell id="O0PW9jx7jIYoNXfm1WO1-499" value="&lt;span style=&quot;font-weight: 400;&quot;&gt;current card&lt;/span&gt;" style="rounded=0;whiteSpace=wrap;html=1;dashed=1;strokeWidth=2;fillColor=none;verticalAlign=top;fontStyle=1;opacity=40;" parent="1" vertex="1">
          <mxGeometry x="1010" y="2520" width="430" height="290" as="geometry" />
        </mxCell>
        <mxCell id="O0PW9jx7jIYoNXfm1WO1-500" value="&lt;span style=&quot;font-weight: 400;&quot;&gt;web &amp;amp; app&lt;/span&gt;" style="rounded=0;whiteSpace=wrap;html=1;dashed=1;strokeWidth=2;fillColor=none;verticalAlign=top;fontStyle=1;opacity=20;" parent="1" vertex="1">
          <mxGeometry x="1030" y="2550" width="390" height="240" as="geometry" />
        </mxCell>
        <mxCell id="O0PW9jx7jIYoNXfm1WO1-504" value="list cards" style="rounded=0;whiteSpace=wrap;html=1;fontColor=#000000;fillColor=none;" parent="1" vertex="1">
          <mxGeometry x="1040" y="2650" width="110" height="60" as="geometry" />
        </mxCell>
        <mxCell id="O0PW9jx7jIYoNXfm1WO1-505" value="get info by cardId" style="rounded=0;whiteSpace=wrap;html=1;fontColor=#000000;fillColor=none;" parent="1" vertex="1">
          <mxGeometry x="1170" y="2650" width="110" height="60" as="geometry" />
        </mxCell>
        <mxCell id="O0PW9jx7jIYoNXfm1WO1-506" value="update card limit" style="rounded=0;whiteSpace=wrap;html=1;fontColor=#000000;fillColor=none;" parent="1" vertex="1">
          <mxGeometry x="1300" y="2650" width="110" height="60" as="geometry" />
        </mxCell>
        <mxCell id="O0PW9jx7jIYoNXfm1WO1-507" value="get pic info by cardId" style="rounded=0;whiteSpace=wrap;html=1;fontColor=#000000;fillColor=none;" parent="1" vertex="1">
          <mxGeometry x="1040" y="2720" width="110" height="60" as="geometry" />
        </mxCell>
        <mxCell id="O0PW9jx7jIYoNXfm1WO1-508" value="update pin by cardId" style="rounded=0;whiteSpace=wrap;html=1;fontColor=#000000;fillColor=none;" parent="1" vertex="1">
          <mxGeometry x="1170" y="2720" width="110" height="60" as="geometry" />
        </mxCell>
        <mxCell id="O0PW9jx7jIYoNXfm1WO1-509" value="update status" style="rounded=0;whiteSpace=wrap;html=1;fontColor=#000000;fillColor=none;" parent="1" vertex="1">
          <mxGeometry x="1300" y="2720" width="110" height="60" as="geometry" />
        </mxCell>
        <mxCell id="ppl4AUfpNEPx4JlbEjYc-67" value="&lt;span style=&quot;font-weight: 400;&quot;&gt;application&amp;nbsp;module&lt;/span&gt;" style="rounded=0;whiteSpace=wrap;html=1;dashed=1;strokeWidth=2;fillColor=none;verticalAlign=top;fontStyle=1" parent="1" vertex="1">
          <mxGeometry x="530" y="-830" width="470" height="980" as="geometry" />
        </mxCell>
        <mxCell id="ppl4AUfpNEPx4JlbEjYc-68" value="&lt;span style=&quot;font-weight: 400;&quot;&gt;admin&lt;/span&gt;" style="rounded=0;whiteSpace=wrap;html=1;dashed=1;strokeWidth=2;fillColor=none;verticalAlign=top;fontStyle=1" parent="1" vertex="1">
          <mxGeometry x="550" y="-790" width="430" height="340" as="geometry" />
        </mxCell>
        <mxCell id="ppl4AUfpNEPx4JlbEjYc-69" value="&lt;span style=&quot;font-weight: 400;&quot;&gt;customer&lt;/span&gt;" style="rounded=0;whiteSpace=wrap;html=1;dashed=1;strokeWidth=2;fillColor=none;verticalAlign=top;fontStyle=1" parent="1" vertex="1">
          <mxGeometry x="550" y="-440" width="430" height="570" as="geometry" />
        </mxCell>
        <mxCell id="ppl4AUfpNEPx4JlbEjYc-70" value="application manager" style="rounded=0;whiteSpace=wrap;html=1;fontColor=#000000;fillColor=none;" parent="1" vertex="1">
          <mxGeometry x="570" y="-750" width="110" height="60" as="geometry" />
        </mxCell>
        <mxCell id="ppl4AUfpNEPx4JlbEjYc-71" value="appliction rollback to old version" style="rounded=0;whiteSpace=wrap;html=1;fontColor=#000000;fillColor=none;" parent="1" vertex="1">
          <mxGeometry x="710" y="-750" width="110" height="60" as="geometry" />
        </mxCell>
        <mxCell id="ppl4AUfpNEPx4JlbEjYc-72" value="view deleted application" style="rounded=0;whiteSpace=wrap;html=1;fontColor=#000000;fillColor=none;" parent="1" vertex="1">
          <mxGeometry x="850" y="-750" width="110" height="60" as="geometry" />
        </mxCell>
        <mxCell id="mvXVn2V-p39kU3JAdQ17-1" value="start new application with a form" style="rounded=0;whiteSpace=wrap;html=1;fontColor=#000000;fillColor=none;" parent="1" vertex="1">
          <mxGeometry x="710" y="-400" width="110" height="60" as="geometry" />
        </mxCell>
        <mxCell id="mvXVn2V-p39kU3JAdQ17-2" value="drop off application" style="rounded=0;whiteSpace=wrap;html=1;fontColor=#000000;fillColor=none;" parent="1" vertex="1">
          <mxGeometry x="710" y="-320" width="110" height="60" as="geometry" />
        </mxCell>
        <mxCell id="mvXVn2V-p39kU3JAdQ17-3" value="cannel application" style="rounded=0;whiteSpace=wrap;html=1;fontColor=#000000;fillColor=none;" parent="1" vertex="1">
          <mxGeometry x="570" y="-320" width="110" height="60" as="geometry" />
        </mxCell>
        <mxCell id="mvXVn2V-p39kU3JAdQ17-6" value="submit&amp;amp;save application" style="rounded=0;whiteSpace=wrap;html=1;fontColor=#000000;fillColor=none;" parent="1" vertex="1">
          <mxGeometry x="850" y="-400" width="110" height="60" as="geometry" />
        </mxCell>
        <mxCell id="mvXVn2V-p39kU3JAdQ17-7" value="forms manager" style="rounded=0;whiteSpace=wrap;html=1;fontColor=#000000;fillColor=none;" parent="1" vertex="1">
          <mxGeometry x="570" y="-680" width="110" height="60" as="geometry" />
        </mxCell>
        <mxCell id="mvXVn2V-p39kU3JAdQ17-8" value="view forms histories version" style="rounded=0;whiteSpace=wrap;html=1;fontColor=#000000;fillColor=none;" parent="1" vertex="1">
          <mxGeometry x="710" y="-680" width="110" height="60" as="geometry" />
        </mxCell>
        <mxCell id="mvXVn2V-p39kU3JAdQ17-9" value="form assemble" style="rounded=0;whiteSpace=wrap;html=1;fontColor=#000000;fillColor=none;" parent="1" vertex="1">
          <mxGeometry x="710" y="-610" width="110" height="60" as="geometry" />
        </mxCell>
        <mxCell id="mvXVn2V-p39kU3JAdQ17-10" value="form e&lt;span style=&quot;background-color: initial;&quot;&gt;dit approval&lt;br&gt;&lt;/span&gt;" style="rounded=0;whiteSpace=wrap;html=1;fontColor=#000000;fillColor=none;" parent="1" vertex="1">
          <mxGeometry x="570" y="-610" width="110" height="60" as="geometry" />
        </mxCell>
        <mxCell id="mvXVn2V-p39kU3JAdQ17-11" value="form rollback to old version" style="rounded=0;whiteSpace=wrap;html=1;fontColor=#000000;fillColor=none;" parent="1" vertex="1">
          <mxGeometry x="850" y="-680" width="110" height="60" as="geometry" />
        </mxCell>
        <mxCell id="mvXVn2V-p39kU3JAdQ17-12" value="form template&lt;br&gt;&amp;nbsp; manager" style="rounded=0;whiteSpace=wrap;html=1;fontColor=#000000;fillColor=none;" parent="1" vertex="1">
          <mxGeometry x="850" y="-610" width="110" height="60" as="geometry" />
        </mxCell>
        <mxCell id="mvXVn2V-p39kU3JAdQ17-13" value="form screens manager" style="rounded=0;whiteSpace=wrap;html=1;fontColor=#000000;fillColor=none;" parent="1" vertex="1">
          <mxGeometry x="570" y="-530" width="110" height="60" as="geometry" />
        </mxCell>
        <mxCell id="mvXVn2V-p39kU3JAdQ17-14" value="view SLP product&amp;nbsp;" style="rounded=0;whiteSpace=wrap;html=1;fontColor=#000000;fillColor=none;" parent="1" vertex="1">
          <mxGeometry x="710" y="-530" width="110" height="60" as="geometry" />
        </mxCell>
        <mxCell id="mvXVn2V-p39kU3JAdQ17-15" value="read a form" style="rounded=0;whiteSpace=wrap;html=1;fontColor=#000000;fillColor=none;" parent="1" vertex="1">
          <mxGeometry x="570" y="-400" width="110" height="60" as="geometry" />
        </mxCell>
        <mxCell id="mvXVn2V-p39kU3JAdQ17-17" value="&lt;span style=&quot;font-weight: 400;&quot;&gt;base module&lt;/span&gt;" style="rounded=0;whiteSpace=wrap;html=1;dashed=1;strokeWidth=2;fillColor=none;verticalAlign=top;fontStyle=1" parent="1" vertex="1">
          <mxGeometry x="40" y="-830" width="470" height="980" as="geometry" />
        </mxCell>
        <mxCell id="mvXVn2V-p39kU3JAdQ17-18" value="&lt;span style=&quot;font-weight: 400;&quot;&gt;admin&lt;/span&gt;" style="rounded=0;whiteSpace=wrap;html=1;dashed=1;strokeWidth=2;fillColor=none;verticalAlign=top;fontStyle=1" parent="1" vertex="1">
          <mxGeometry x="60" y="-790" width="410" height="340" as="geometry" />
        </mxCell>
        <mxCell id="mvXVn2V-p39kU3JAdQ17-24" value="&lt;span style=&quot;font-weight: 400;&quot;&gt;customer&lt;/span&gt;" style="rounded=0;whiteSpace=wrap;html=1;dashed=1;strokeWidth=2;fillColor=none;verticalAlign=top;fontStyle=1" parent="1" vertex="1">
          <mxGeometry x="60" y="-440" width="410" height="570" as="geometry" />
        </mxCell>
        <mxCell id="mvXVn2V-p39kU3JAdQ17-20" value="mms category" style="rounded=0;whiteSpace=wrap;html=1;fontColor=#000000;fillColor=none;" parent="1" vertex="1">
          <mxGeometry x="80" y="-40" width="110" height="60" as="geometry" />
        </mxCell>
        <mxCell id="mvXVn2V-p39kU3JAdQ17-21" value="mms&amp;nbsp;merchants" style="rounded=0;whiteSpace=wrap;html=1;fontColor=#000000;fillColor=none;" parent="1" vertex="1">
          <mxGeometry x="210" y="-40" width="110" height="60" as="geometry" />
        </mxCell>
        <mxCell id="mvXVn2V-p39kU3JAdQ17-22" value="mms&amp;nbsp;static QRCode" style="rounded=0;whiteSpace=wrap;html=1;fontColor=#000000;fillColor=none;" parent="1" vertex="1">
          <mxGeometry x="340" y="-40" width="110" height="60" as="geometry" />
        </mxCell>
        <mxCell id="mvXVn2V-p39kU3JAdQ17-23" value="mms&amp;nbsp;sku" style="rounded=0;whiteSpace=wrap;html=1;fontColor=#000000;fillColor=none;" parent="1" vertex="1">
          <mxGeometry x="80" y="30" width="110" height="60" as="geometry" />
        </mxCell>
        <mxCell id="mvXVn2V-p39kU3JAdQ17-26" value="theme manager" style="rounded=0;whiteSpace=wrap;html=1;fontColor=#000000;fillColor=none;" parent="1" vertex="1">
          <mxGeometry x="80" y="-750" width="110" height="60" as="geometry" />
        </mxCell>
        <mxCell id="mvXVn2V-p39kU3JAdQ17-27" value="screen manager" style="rounded=0;whiteSpace=wrap;html=1;fontColor=#000000;fillColor=none;" parent="1" vertex="1">
          <mxGeometry x="210" y="-750" width="110" height="60" as="geometry" />
        </mxCell>
        <mxCell id="mvXVn2V-p39kU3JAdQ17-28" value="bundles&amp;nbsp;manager" style="rounded=0;whiteSpace=wrap;html=1;fontColor=#000000;fillColor=none;" parent="1" vertex="1">
          <mxGeometry x="340" y="-750" width="110" height="60" as="geometry" />
        </mxCell>
        <mxCell id="mvXVn2V-p39kU3JAdQ17-29" value="error message manager" style="rounded=0;whiteSpace=wrap;html=1;fontColor=#000000;fillColor=none;" parent="1" vertex="1">
          <mxGeometry x="340" y="-680" width="110" height="60" as="geometry" />
        </mxCell>
        <mxCell id="mvXVn2V-p39kU3JAdQ17-30" value="config manager" style="rounded=0;whiteSpace=wrap;html=1;fontColor=#000000;fillColor=none;" parent="1" vertex="1">
          <mxGeometry x="80" y="-680" width="110" height="60" as="geometry" />
        </mxCell>
        <mxCell id="mvXVn2V-p39kU3JAdQ17-31" value="dictionary manager" style="rounded=0;whiteSpace=wrap;html=1;fontColor=#000000;fillColor=none;" parent="1" vertex="1">
          <mxGeometry x="210" y="-680" width="110" height="60" as="geometry" />
        </mxCell>
        <mxCell id="mvXVn2V-p39kU3JAdQ17-32" value="i18n manager" style="rounded=0;whiteSpace=wrap;html=1;fontColor=#000000;fillColor=none;" parent="1" vertex="1">
          <mxGeometry x="80" y="-610" width="110" height="60" as="geometry" />
        </mxCell>
        <mxCell id="mvXVn2V-p39kU3JAdQ17-33" value="file manager" style="rounded=0;whiteSpace=wrap;html=1;fontColor=#000000;fillColor=none;" parent="1" vertex="1">
          <mxGeometry x="210" y="-610" width="110" height="60" as="geometry" />
        </mxCell>
        <mxCell id="mvXVn2V-p39kU3JAdQ17-34" value="file view &amp;amp; download" style="rounded=0;whiteSpace=wrap;html=1;fontColor=#000000;fillColor=none;" parent="1" vertex="1">
          <mxGeometry x="340" y="-610" width="110" height="60" as="geometry" />
        </mxCell>
        <mxCell id="mvXVn2V-p39kU3JAdQ17-35" value="product manager" style="rounded=0;whiteSpace=wrap;html=1;fontColor=#000000;fillColor=none;" parent="1" vertex="1">
          <mxGeometry x="80" y="-540" width="110" height="60" as="geometry" />
        </mxCell>
        <mxCell id="mvXVn2V-p39kU3JAdQ17-36" value="product category manager" style="rounded=0;whiteSpace=wrap;html=1;fontColor=#000000;fillColor=none;" parent="1" vertex="1">
          <mxGeometry x="210" y="-540" width="110" height="60" as="geometry" />
        </mxCell>
        <mxCell id="mvXVn2V-p39kU3JAdQ17-37" value="notification template manager" style="rounded=0;whiteSpace=wrap;html=1;fontColor=#000000;fillColor=none;" parent="1" vertex="1">
          <mxGeometry x="340" y="-540" width="110" height="60" as="geometry" />
        </mxCell>
        <mxCell id="mvXVn2V-p39kU3JAdQ17-38" value="apply current theme" style="rounded=0;whiteSpace=wrap;html=1;fontColor=#000000;fillColor=none;" parent="1" vertex="1">
          <mxGeometry x="80" y="-400" width="110" height="60" as="geometry" />
        </mxCell>
        <mxCell id="mvXVn2V-p39kU3JAdQ17-39" value="view page by screen" style="rounded=0;whiteSpace=wrap;html=1;fontColor=#000000;fillColor=none;" parent="1" vertex="1">
          <mxGeometry x="210" y="-400" width="110" height="60" as="geometry" />
        </mxCell>
        <mxCell id="mvXVn2V-p39kU3JAdQ17-41" value="filter bundles" style="rounded=0;whiteSpace=wrap;html=1;fontColor=#000000;fillColor=none;" parent="1" vertex="1">
          <mxGeometry x="340" y="-400" width="110" height="60" as="geometry" />
        </mxCell>
        <mxCell id="mvXVn2V-p39kU3JAdQ17-42" value="apply app setting" style="rounded=0;whiteSpace=wrap;html=1;fontColor=#000000;fillColor=none;" parent="1" vertex="1">
          <mxGeometry x="80" y="-330" width="110" height="60" as="geometry" />
        </mxCell>
        <mxCell id="mvXVn2V-p39kU3JAdQ17-43" value="filter dictionary" style="rounded=0;whiteSpace=wrap;html=1;fontColor=#000000;fillColor=none;" parent="1" vertex="1">
          <mxGeometry x="210" y="-330" width="110" height="60" as="geometry" />
        </mxCell>
        <mxCell id="mvXVn2V-p39kU3JAdQ17-46" value="file view &amp;amp; download" style="rounded=0;whiteSpace=wrap;html=1;fontColor=#000000;fillColor=none;" parent="1" vertex="1">
          <mxGeometry x="80" y="-260" width="110" height="60" as="geometry" />
        </mxCell>
        <mxCell id="mvXVn2V-p39kU3JAdQ17-47" value="apply i18n" style="rounded=0;whiteSpace=wrap;html=1;fontColor=#000000;fillColor=none;" parent="1" vertex="1">
          <mxGeometry x="340" y="-330" width="110" height="60" as="geometry" />
        </mxCell>
        <mxCell id="mvXVn2V-p39kU3JAdQ17-48" value="file(s) uplaod&amp;nbsp;" style="rounded=0;whiteSpace=wrap;html=1;fontColor=#000000;fillColor=none;" parent="1" vertex="1">
          <mxGeometry x="210" y="-260" width="110" height="60" as="geometry" />
        </mxCell>
        <mxCell id="mvXVn2V-p39kU3JAdQ17-49" value="file(s) download" style="rounded=0;whiteSpace=wrap;html=1;fontColor=#000000;fillColor=none;" parent="1" vertex="1">
          <mxGeometry x="340" y="-260" width="110" height="60" as="geometry" />
        </mxCell>
        <mxCell id="mvXVn2V-p39kU3JAdQ17-51" value="file(pdf,xls,doc)&amp;nbsp;&lt;div&gt;generate&lt;/div&gt;" style="rounded=0;whiteSpace=wrap;html=1;fontColor=#000000;fillColor=none;" parent="1" vertex="1">
          <mxGeometry x="80" y="-190" width="110" height="60" as="geometry" />
        </mxCell>
        <mxCell id="mvXVn2V-p39kU3JAdQ17-53" value="QRCode&amp;nbsp;&lt;div&gt;generate&lt;/div&gt;" style="rounded=0;whiteSpace=wrap;html=1;fontColor=#000000;fillColor=none;" parent="1" vertex="1">
          <mxGeometry x="210" y="-190" width="110" height="60" as="geometry" />
        </mxCell>
        <mxCell id="mvXVn2V-p39kU3JAdQ17-54" value="read product&amp;nbsp;for apply" style="rounded=0;whiteSpace=wrap;html=1;fontColor=#000000;fillColor=none;" parent="1" vertex="1">
          <mxGeometry x="340" y="-190" width="110" height="60" as="geometry" />
        </mxCell>
        <mxCell id="mvXVn2V-p39kU3JAdQ17-56" value="public key" style="rounded=0;whiteSpace=wrap;html=1;fontColor=#000000;fillColor=none;" parent="1" vertex="1">
          <mxGeometry x="80" y="-120" width="110" height="60" as="geometry" />
        </mxCell>
        <mxCell id="mvXVn2V-p39kU3JAdQ17-57" value="bank list" style="rounded=0;whiteSpace=wrap;html=1;fontColor=#000000;fillColor=none;" parent="1" vertex="1">
          <mxGeometry x="210" y="-120" width="110" height="60" as="geometry" />
        </mxCell>
        <mxCell id="mvXVn2V-p39kU3JAdQ17-58" value="&lt;span style=&quot;font-weight: 400;&quot;&gt;bank module&lt;/span&gt;" style="rounded=0;whiteSpace=wrap;html=1;dashed=1;strokeWidth=2;fillColor=none;verticalAlign=top;fontStyle=1" parent="1" vertex="1">
          <mxGeometry x="1020" y="-830" width="440" height="980" as="geometry" />
        </mxCell>
        <mxCell id="mvXVn2V-p39kU3JAdQ17-59" value="&lt;span style=&quot;font-weight: 400;&quot;&gt;admin&lt;/span&gt;" style="rounded=0;whiteSpace=wrap;html=1;dashed=1;strokeWidth=2;fillColor=none;verticalAlign=top;fontStyle=1" parent="1" vertex="1">
          <mxGeometry x="1040" y="-800" width="400" height="110" as="geometry" />
        </mxCell>
        <mxCell id="mvXVn2V-p39kU3JAdQ17-60" value="&lt;span style=&quot;font-weight: 400;&quot;&gt;customer&lt;/span&gt;" style="rounded=0;whiteSpace=wrap;html=1;dashed=1;strokeWidth=2;fillColor=none;verticalAlign=top;fontStyle=1" parent="1" vertex="1">
          <mxGeometry x="1040" y="-680" width="400" height="810" as="geometry" />
        </mxCell>
        <mxCell id="mvXVn2V-p39kU3JAdQ17-62" value="user manager" style="rounded=0;whiteSpace=wrap;html=1;fontColor=#000000;fillColor=none;" parent="1" vertex="1">
          <mxGeometry x="1060" y="-770" width="110" height="60" as="geometry" />
        </mxCell>
        <mxCell id="mvXVn2V-p39kU3JAdQ17-63" value="privacy manager" style="rounded=0;whiteSpace=wrap;html=1;fontColor=#000000;fillColor=none;" parent="1" vertex="1">
          <mxGeometry x="1320" y="-770" width="110" height="60" as="geometry" />
        </mxCell>
        <mxCell id="mvXVn2V-p39kU3JAdQ17-65" value="contries" style="rounded=0;whiteSpace=wrap;html=1;fontColor=#000000;fillColor=none;" parent="1" vertex="1">
          <mxGeometry x="340" y="-120" width="110" height="60" as="geometry" />
        </mxCell>
        <mxCell id="mvXVn2V-p39kU3JAdQ17-66" value="bank customer info update" style="rounded=0;whiteSpace=wrap;html=1;fontColor=#000000;fillColor=none;" parent="1" vertex="1">
          <mxGeometry x="1190" y="-770" width="110" height="60" as="geometry" />
        </mxCell>
        <mxCell id="mvXVn2V-p39kU3JAdQ17-67" value="customer oauth" style="rounded=0;whiteSpace=wrap;html=1;fontColor=#000000;fillColor=none;" parent="1" vertex="1">
          <mxGeometry x="1050" y="-650" width="110" height="60" as="geometry" />
        </mxCell>
        <mxCell id="mvXVn2V-p39kU3JAdQ17-68" value="forgot username &amp;amp; password" style="rounded=0;whiteSpace=wrap;html=1;fontColor=#000000;fillColor=none;" parent="1" vertex="1">
          <mxGeometry x="1190" y="-650" width="110" height="60" as="geometry" />
        </mxCell>
        <mxCell id="mvXVn2V-p39kU3JAdQ17-69" value="payee manager" style="rounded=0;whiteSpace=wrap;html=1;fontColor=#000000;fillColor=none;" parent="1" vertex="1">
          <mxGeometry x="1315" y="-650" width="110" height="60" as="geometry" />
        </mxCell>
        <mxCell id="mvXVn2V-p39kU3JAdQ17-70" value="MPIN" style="rounded=0;whiteSpace=wrap;html=1;fontColor=#000000;fillColor=none;" parent="1" vertex="1">
          <mxGeometry x="1050" y="-575" width="110" height="60" as="geometry" />
        </mxCell>
        <mxCell id="mvXVn2V-p39kU3JAdQ17-72" value="view deposit account" style="rounded=0;whiteSpace=wrap;html=1;fontColor=#000000;fillColor=none;" parent="1" vertex="1">
          <mxGeometry x="1190" y="-575" width="110" height="60" as="geometry" />
        </mxCell>
        <mxCell id="mvXVn2V-p39kU3JAdQ17-73" value="close deposit account" style="rounded=0;whiteSpace=wrap;html=1;fontColor=#000000;fillColor=none;" parent="1" vertex="1">
          <mxGeometry x="1315" y="-575" width="110" height="60" as="geometry" />
        </mxCell>
        <mxCell id="mvXVn2V-p39kU3JAdQ17-76" value="view deposit account&amp;nbsp;transaction histories" style="rounded=0;whiteSpace=wrap;html=1;fontColor=#000000;fillColor=none;" parent="1" vertex="1">
          <mxGeometry x="1050" y="-505" width="110" height="60" as="geometry" />
        </mxCell>
        <mxCell id="mvXVn2V-p39kU3JAdQ17-77" value="transaction with deposit account" style="rounded=0;whiteSpace=wrap;html=1;fontColor=#000000;fillColor=none;" parent="1" vertex="1">
          <mxGeometry x="1190" y="-505" width="110" height="60" as="geometry" />
        </mxCell>
        <mxCell id="mvXVn2V-p39kU3JAdQ17-79" value="view loan account" style="rounded=0;whiteSpace=wrap;html=1;fontColor=#000000;fillColor=none;" parent="1" vertex="1">
          <mxGeometry x="1315" y="-505" width="110" height="60" as="geometry" />
        </mxCell>
        <mxCell id="mvXVn2V-p39kU3JAdQ17-80" value="close loan account" style="rounded=0;whiteSpace=wrap;html=1;fontColor=#000000;fillColor=none;" parent="1" vertex="1">
          <mxGeometry x="1050" y="-435" width="110" height="60" as="geometry" />
        </mxCell>
        <mxCell id="mvXVn2V-p39kU3JAdQ17-81" value="view&amp;nbsp; loan account&amp;nbsp;transaction histories" style="rounded=0;whiteSpace=wrap;html=1;fontColor=#000000;fillColor=none;" parent="1" vertex="1">
          <mxGeometry x="1190" y="-435" width="110" height="60" as="geometry" />
        </mxCell>
        <mxCell id="mvXVn2V-p39kU3JAdQ17-82" value="transaction with loan account" style="rounded=0;whiteSpace=wrap;html=1;fontColor=#000000;fillColor=none;" parent="1" vertex="1">
          <mxGeometry x="1315" y="-435" width="110" height="60" as="geometry" />
        </mxCell>
        <mxCell id="mvXVn2V-p39kU3JAdQ17-83" value="transaction with loan account" style="rounded=0;whiteSpace=wrap;html=1;fontColor=#000000;fillColor=none;" parent="1" vertex="1">
          <mxGeometry x="1050" y="-365" width="110" height="60" as="geometry" />
        </mxCell>
        <mxCell id="mvXVn2V-p39kU3JAdQ17-84" value="loan repayments" style="rounded=0;whiteSpace=wrap;html=1;fontColor=#000000;fillColor=none;" parent="1" vertex="1">
          <mxGeometry x="1190" y="-365" width="110" height="60" as="geometry" />
        </mxCell>
        <mxCell id="mvXVn2V-p39kU3JAdQ17-85" value="loan&amp;nbsp;early settlement" style="rounded=0;whiteSpace=wrap;html=1;fontColor=#000000;fillColor=none;" parent="1" vertex="1">
          <mxGeometry x="1315" y="-365" width="110" height="60" as="geometry" />
        </mxCell>
        <mxCell id="mvXVn2V-p39kU3JAdQ17-87" value="view repayment plan" style="rounded=0;whiteSpace=wrap;html=1;fontColor=#000000;fillColor=none;" parent="1" vertex="1">
          <mxGeometry x="1050" y="-295" width="110" height="60" as="geometry" />
        </mxCell>
        <mxCell id="mvXVn2V-p39kU3JAdQ17-90" value="repayments by QRCode" style="rounded=0;whiteSpace=wrap;html=1;fontColor=#000000;fillColor=none;" parent="1" vertex="1">
          <mxGeometry x="1190" y="-295" width="110" height="60" as="geometry" />
        </mxCell>
        <mxCell id="mvXVn2V-p39kU3JAdQ17-91" value="view card acccount" style="rounded=0;whiteSpace=wrap;html=1;fontColor=#000000;fillColor=none;" parent="1" vertex="1">
          <mxGeometry x="1315" y="-295" width="110" height="60" as="geometry" />
        </mxCell>
        <mxCell id="mvXVn2V-p39kU3JAdQ17-92" value="card account payments" style="rounded=0;whiteSpace=wrap;html=1;fontColor=#000000;fillColor=none;" parent="1" vertex="1">
          <mxGeometry x="1050" y="-220" width="110" height="60" as="geometry" />
        </mxCell>
        <mxCell id="mvXVn2V-p39kU3JAdQ17-93" value="card account transaction histories" style="rounded=0;whiteSpace=wrap;html=1;fontColor=#000000;fillColor=none;" parent="1" vertex="1">
          <mxGeometry x="1190" y="-220" width="110" height="60" as="geometry" />
        </mxCell>
        <mxCell id="mvXVn2V-p39kU3JAdQ17-94" value="card account statements" style="rounded=0;whiteSpace=wrap;html=1;fontColor=#000000;fillColor=none;" parent="1" vertex="1">
          <mxGeometry x="1315" y="-220" width="110" height="60" as="geometry" />
        </mxCell>
        <mxCell id="mvXVn2V-p39kU3JAdQ17-95" value="card activate" style="rounded=0;whiteSpace=wrap;html=1;fontColor=#000000;fillColor=none;" parent="1" vertex="1">
          <mxGeometry x="1050" y="-150" width="110" height="60" as="geometry" />
        </mxCell>
        <mxCell id="mvXVn2V-p39kU3JAdQ17-96" value="view cards" style="rounded=0;whiteSpace=wrap;html=1;fontColor=#000000;fillColor=none;" parent="1" vertex="1">
          <mxGeometry x="1190" y="-150" width="110" height="60" as="geometry" />
        </mxCell>
        <mxCell id="mvXVn2V-p39kU3JAdQ17-98" value="card limit update" style="rounded=0;whiteSpace=wrap;html=1;fontColor=#000000;fillColor=none;" parent="1" vertex="1">
          <mxGeometry x="1315" y="-150" width="110" height="60" as="geometry" />
        </mxCell>
        <mxCell id="mvXVn2V-p39kU3JAdQ17-100" value="card pin update" style="rounded=0;whiteSpace=wrap;html=1;fontColor=#000000;fillColor=none;" parent="1" vertex="1">
          <mxGeometry x="1050" y="-80" width="110" height="60" as="geometry" />
        </mxCell>
        <mxCell id="mvXVn2V-p39kU3JAdQ17-101" value="card status update" style="rounded=0;whiteSpace=wrap;html=1;fontColor=#000000;fillColor=none;" parent="1" vertex="1">
          <mxGeometry x="1190" y="-80" width="110" height="60" as="geometry" />
        </mxCell>
        <mxCell id="mvXVn2V-p39kU3JAdQ17-102" value="transfer by qr-code" style="rounded=0;whiteSpace=wrap;html=1;fontColor=#000000;fillColor=none;" parent="1" vertex="1">
          <mxGeometry x="1315" y="-80" width="110" height="60" as="geometry" />
        </mxCell>
        <mxCell id="mvXVn2V-p39kU3JAdQ17-103" value="amount verification (buy now pay later)" style="rounded=0;whiteSpace=wrap;html=1;fontColor=#000000;fillColor=none;" parent="1" vertex="1">
          <mxGeometry x="1050" y="-10" width="110" height="60" as="geometry" />
        </mxCell>
        <mxCell id="mvXVn2V-p39kU3JAdQ17-104" value="disbursements (buy now pay later)" style="rounded=0;whiteSpace=wrap;html=1;fontColor=#000000;fillColor=none;" parent="1" vertex="1">
          <mxGeometry x="1190" y="-10" width="110" height="60" as="geometry" />
        </mxCell>
        <mxCell id="mvXVn2V-p39kU3JAdQ17-105" value="interest calculation (buy now pay later)" style="rounded=0;whiteSpace=wrap;html=1;fontColor=#000000;fillColor=none;" parent="1" vertex="1">
          <mxGeometry x="1315" y="-10" width="110" height="60" as="geometry" />
        </mxCell>
        <mxCell id="mvXVn2V-p39kU3JAdQ17-106" value="biapfacecomparison" style="rounded=0;whiteSpace=wrap;html=1;fontColor=#000000;fillColor=none;" parent="1" vertex="1">
          <mxGeometry x="1050" y="60" width="110" height="60" as="geometry" />
        </mxCell>
        <mxCell id="mvXVn2V-p39kU3JAdQ17-107" value="biapfacerecognition" style="rounded=0;whiteSpace=wrap;html=1;fontColor=#000000;fillColor=none;" parent="1" vertex="1">
          <mxGeometry x="1185" y="60" width="110" height="60" as="geometry" />
        </mxCell>
        <mxCell id="mvXVn2V-p39kU3JAdQ17-108" value="detect multi side" style="rounded=0;whiteSpace=wrap;html=1;fontColor=#000000;fillColor=none;" parent="1" vertex="1">
          <mxGeometry x="1315" y="60" width="110" height="60" as="geometry" />
        </mxCell>
        <mxCell id="lsaPHRyVFNU2QhNYm0W4-1" value="&lt;span style=&quot;font-weight: 400;&quot;&gt;user module&lt;/span&gt;" style="rounded=0;whiteSpace=wrap;html=1;dashed=1;strokeWidth=2;fillColor=none;verticalAlign=top;fontStyle=1" vertex="1" parent="1">
          <mxGeometry x="1480" y="-830" width="440" height="430" as="geometry" />
        </mxCell>
        <mxCell id="lsaPHRyVFNU2QhNYm0W4-2" value="&lt;span style=&quot;font-weight: 400;&quot;&gt;admin&lt;/span&gt;" style="rounded=0;whiteSpace=wrap;html=1;dashed=1;strokeWidth=2;fillColor=none;verticalAlign=top;fontStyle=1" vertex="1" parent="1">
          <mxGeometry x="1500" y="-800" width="400" height="250" as="geometry" />
        </mxCell>
        <mxCell id="lsaPHRyVFNU2QhNYm0W4-3" value="admin user manager" style="rounded=0;whiteSpace=wrap;html=1;fontColor=#000000;fillColor=none;" vertex="1" parent="1">
          <mxGeometry x="1520" y="-770" width="110" height="60" as="geometry" />
        </mxCell>
        <mxCell id="lsaPHRyVFNU2QhNYm0W4-4" value="OCDB api manager" style="rounded=0;whiteSpace=wrap;html=1;fontColor=#000000;fillColor=none;" vertex="1" parent="1">
          <mxGeometry x="1650" y="-770" width="110" height="60" as="geometry" />
        </mxCell>
        <mxCell id="lsaPHRyVFNU2QhNYm0W4-5" value="admin user oauth" style="rounded=0;whiteSpace=wrap;html=1;fontColor=#000000;fillColor=none;" vertex="1" parent="1">
          <mxGeometry x="1780" y="-770" width="110" height="60" as="geometry" />
        </mxCell>
        <mxCell id="lsaPHRyVFNU2QhNYm0W4-6" value="permission manager" style="rounded=0;whiteSpace=wrap;html=1;fontColor=#000000;fillColor=none;" vertex="1" parent="1">
          <mxGeometry x="1520" y="-700" width="110" height="60" as="geometry" />
        </mxCell>
        <mxCell id="lsaPHRyVFNU2QhNYm0W4-7" value="permission menu tree" style="rounded=0;whiteSpace=wrap;html=1;fontColor=#000000;fillColor=none;" vertex="1" parent="1">
          <mxGeometry x="1650" y="-700" width="110" height="60" as="geometry" />
        </mxCell>
        <mxCell id="lsaPHRyVFNU2QhNYm0W4-9" value="role manager" style="rounded=0;whiteSpace=wrap;html=1;fontColor=#000000;fillColor=none;" vertex="1" parent="1">
          <mxGeometry x="1780" y="-700" width="110" height="60" as="geometry" />
        </mxCell>
        <mxCell id="lsaPHRyVFNU2QhNYm0W4-10" value="User&amp;amp;Role&amp;amp;&lt;br&gt;Permission&amp;nbsp;&lt;br&gt;mapping manager" style="rounded=0;whiteSpace=wrap;html=1;fontColor=#000000;fillColor=none;" vertex="1" parent="1">
          <mxGeometry x="1520" y="-625" width="110" height="60" as="geometry" />
        </mxCell>
        <mxCell id="lsaPHRyVFNU2QhNYm0W4-13" value="&lt;span style=&quot;font-weight: 400;&quot;&gt;customer&lt;/span&gt;" style="rounded=0;whiteSpace=wrap;html=1;dashed=1;strokeWidth=2;fillColor=none;verticalAlign=top;fontStyle=1" vertex="1" parent="1">
          <mxGeometry x="1500" y="-530" width="400" height="110" as="geometry" />
        </mxCell>
        <mxCell id="lsaPHRyVFNU2QhNYm0W4-12" value="OTP" style="rounded=0;whiteSpace=wrap;html=1;fontColor=#000000;fillColor=#CCCCFF;" vertex="1" parent="1">
          <mxGeometry x="1520" y="-500" width="110" height="60" as="geometry" />
        </mxCell>
        <mxCell id="lsaPHRyVFNU2QhNYm0W4-14" value="&lt;span style=&quot;font-weight: 400;&quot;&gt;out module&lt;/span&gt;" style="rounded=0;whiteSpace=wrap;html=1;dashed=1;strokeWidth=2;fillColor=none;verticalAlign=top;fontStyle=1" vertex="1" parent="1">
          <mxGeometry x="1480" y="-40" width="450" height="160" as="geometry" />
        </mxCell>
        <mxCell id="lsaPHRyVFNU2QhNYm0W4-16" value="&lt;span style=&quot;font-weight: 400;&quot;&gt;admin&lt;/span&gt;" style="rounded=0;whiteSpace=wrap;html=1;dashed=1;strokeWidth=2;fillColor=none;verticalAlign=top;fontStyle=1" vertex="1" parent="1">
          <mxGeometry x="1500" y="-10" width="390" height="110" as="geometry" />
        </mxCell>
        <mxCell id="lsaPHRyVFNU2QhNYm0W4-17" value="third party manager" style="rounded=0;whiteSpace=wrap;html=1;fontColor=#000000;fillColor=none;" vertex="1" parent="1">
          <mxGeometry x="1520" y="20" width="110" height="60" as="geometry" />
        </mxCell>
        <mxCell id="lsaPHRyVFNU2QhNYm0W4-24" value="&lt;span style=&quot;font-weight: 400;&quot;&gt;SI module&lt;/span&gt;" style="rounded=0;whiteSpace=wrap;html=1;dashed=1;strokeWidth=2;fillColor=none;verticalAlign=top;fontStyle=1" vertex="1" parent="1">
          <mxGeometry x="1480" y="-375" width="450" height="325" as="geometry" />
        </mxCell>
        <mxCell id="lsaPHRyVFNU2QhNYm0W4-27" value="viduo token&lt;span style=&quot;color: rgba(0, 0, 0, 0); font-family: monospace; font-size: 0px; text-align: start;&quot;&gt;%3CmxGraphModel%3E%3Croot%3E%3CmxCell%20id%3D%220%22%2F%3E%3CmxCell%20id%3D%221%22%20parent%3D%220%22%2F%3E%3CmxCell%20id%3D%222%22%20value%3D%22token%22%20style%3D%22rounded%3D0%3BwhiteSpace%3Dwrap%3Bhtml%3D1%3BfontColor%3D%23000000%3BfillColor%3Dnone%3B%22%20vertex%3D%221%22%20parent%3D%221%22%3E%3CmxGeometry%20x%3D%221990%22%20y%3D%221240%22%20width%3D%22110%22%20height%3D%2260%22%20as%3D%22geometry%22%2F%3E%3C%2FmxCell%3E%3CmxCell%20id%3D%223%22%20value%3D%22applicant%20token%22%20style%3D%22rounded%3D0%3BwhiteSpace%3Dwrap%3Bhtml%3D1%3BfontColor%3D%23000000%3BfillColor%3Dnone%3B%22%20vertex%3D%221%22%20parent%3D%221%22%3E%3CmxGeometry%20x%3D%222120%22%20y%3D%221240%22%20width%3D%22110%22%20height%3D%2260%22%20as%3D%22geometry%22%2F%3E%3C%2FmxCell%3E%3CmxCell%20id%3D%224%22%20value%3D%22start%20record%22%20style%3D%22rounded%3D0%3BwhiteSpace%3Dwrap%3Bhtml%3D1%3BfontColor%3D%23000000%3BfillColor%3Dnone%3B%22%20vertex%3D%221%22%20parent%3D%221%22%3E%3CmxGeometry%20x%3D%222250%22%20y%3D%221240%22%20width%3D%22110%22%20height%3D%2260%22%20as%3D%22geometry%22%2F%3E%3C%2FmxCell%3E%3CmxCell%20id%3D%225%22%20value%3D%22end%20record%22%20style%3D%22rounded%3D0%3BwhiteSpace%3Dwrap%3Bhtml%3D1%3BfontColor%3D%23000000%3BfillColor%3Dnone%3B%22%20vertex%3D%221%22%20parent%3D%221%22%3E%3CmxGeometry%20x%3D%221990%22%20y%3D%221310%22%20width%3D%22110%22%20height%3D%2260%22%20as%3D%22geometry%22%2F%3E%3C%2FmxCell%3E%3CmxCell%20id%3D%226%22%20value%3D%22upload%20photo%22%20style%3D%22rounded%3D0%3BwhiteSpace%3Dwrap%3Bhtml%3D1%3BfontColor%3D%23000000%3BfillColor%3Dnone%3B%22%20vertex%3D%221%22%20parent%3D%221%22%3E%3CmxGeometry%20x%3D%222120%22%20y%3D%221310%22%20width%3D%22110%22%20height%3D%2260%22%20as%3D%22geometry%22%2F%3E%3C%2FmxCell%3E%3C%2Froot%3E%3C%2FmxGraphModel%3E&lt;/span&gt;" style="rounded=0;whiteSpace=wrap;html=1;fontColor=#000000;fillColor=none;" vertex="1" parent="1">
          <mxGeometry x="1500" y="-335" width="110" height="60" as="geometry" />
        </mxCell>
        <mxCell id="lsaPHRyVFNU2QhNYm0W4-28" value="applicant token" style="rounded=0;whiteSpace=wrap;html=1;fontColor=#000000;fillColor=none;" vertex="1" parent="1">
          <mxGeometry x="1630" y="-335" width="110" height="60" as="geometry" />
        </mxCell>
        <mxCell id="lsaPHRyVFNU2QhNYm0W4-29" value="start record" style="rounded=0;whiteSpace=wrap;html=1;fontColor=#000000;fillColor=none;" vertex="1" parent="1">
          <mxGeometry x="1760" y="-335" width="110" height="60" as="geometry" />
        </mxCell>
        <mxCell id="lsaPHRyVFNU2QhNYm0W4-30" value="end record" style="rounded=0;whiteSpace=wrap;html=1;fontColor=#000000;fillColor=none;" vertex="1" parent="1">
          <mxGeometry x="1500" y="-190" width="110" height="60" as="geometry" />
        </mxCell>
        <mxCell id="lsaPHRyVFNU2QhNYm0W4-31" value="photo upload" style="rounded=0;whiteSpace=wrap;html=1;fontColor=#000000;fillColor=none;" vertex="1" parent="1">
          <mxGeometry x="1630" y="-190" width="110" height="60" as="geometry" />
        </mxCell>
        <mxCell id="lsaPHRyVFNU2QhNYm0W4-32" value="apointment manager" style="rounded=0;whiteSpace=wrap;html=1;fontColor=#000000;fillColor=none;" vertex="1" parent="1">
          <mxGeometry x="1760" y="-190" width="110" height="60" as="geometry" />
        </mxCell>
        <mxCell id="lsaPHRyVFNU2QhNYm0W4-33" value="question manager" style="rounded=0;whiteSpace=wrap;html=1;fontColor=#000000;fillColor=none;" vertex="1" parent="1">
          <mxGeometry x="1500" y="-265" width="110" height="60" as="geometry" />
        </mxCell>
        <mxCell id="lsaPHRyVFNU2QhNYm0W4-34" value="question combination" style="rounded=0;whiteSpace=wrap;html=1;fontColor=#000000;fillColor=none;" vertex="1" parent="1">
          <mxGeometry x="1630" y="-265" width="110" height="60" as="geometry" />
        </mxCell>
        <mxCell id="lsaPHRyVFNU2QhNYm0W4-35" value="view viduo report" style="rounded=0;whiteSpace=wrap;html=1;fontColor=#000000;fillColor=none;" vertex="1" parent="1">
          <mxGeometry x="1760" y="-265" width="110" height="60" as="geometry" />
        </mxCell>
        <mxCell id="lsaPHRyVFNU2QhNYm0W4-36" value="&lt;div&gt;recording processing&lt;/div&gt;" style="rounded=0;whiteSpace=wrap;html=1;fontColor=#000000;fillColor=none;" vertex="1" parent="1">
          <mxGeometry x="1500" y="-120" width="110" height="60" as="geometry" />
        </mxCell>
        <mxCell id="lsaPHRyVFNU2QhNYm0W4-38" value="&lt;div&gt;viduo resources&amp;nbsp;&lt;/div&gt;download" style="rounded=0;whiteSpace=wrap;html=1;fontColor=#000000;fillColor=none;" vertex="1" parent="1">
          <mxGeometry x="1630" y="-120" width="110" height="60" as="geometry" />
        </mxCell>
      </root>
    </mxGraphModel>
  </diagram>
</mxfile>
